<?xml version="1.0" standalone="no"?>
<!DOCTYPE svg PUBLIC "-//W3C//DTD SVG 20010904//EN"
 "http://www.w3.org/TR/2001/REC-SVG-20010904/DTD/svg10.dtd">
<svg version="1.0" xmlns="http://www.w3.org/2000/svg"
 width="640.000000pt" height="640.000000pt" viewBox="0 0 640.000000 640.000000"
 preserveAspectRatio="xMidYMid meet">
<metadata>
Created by potrace 1.14, written by Peter Selinger 2001-2017
</metadata>
<g transform="translate(0.000000,640.000000) scale(0.100000,-0.100000)"
fill="#000000" stroke="none">
<path d="M3164 4576 c-17 -8 -36 -26 -42 -42 -6 -16 -13 -99 -16 -184 -3 -123
-9 -170 -26 -225 -65 -207 -192 -374 -380 -505 -70 -47 -225 -132 -258 -141
-4 -1 -17 -5 -29 -10 -25 -9 -143 -44 -218 -64 -139 -37 -257 -71 -315 -92
-36 -13 -72 -25 -80 -28 -8 -2 -33 -11 -55 -21 -22 -10 -42 -18 -45 -19 -19
-6 -172 -74 -195 -87 -11 -6 -47 -26 -80 -43 -225 -117 -464 -306 -576 -455
-18 -25 -36 -47 -39 -50 -8 -8 -25 -38 -66 -114 -72 -137 -108 -280 -106 -426
1 -79 9 -170 16 -177 3 -4 6 -15 6 -26 0 -35 31 -85 58 -95 30 -10 75 -1 95
20 7 7 23 42 36 78 48 132 113 236 213 338 82 83 156 138 281 209 l102 58 610
1 c336 1 612 2 615 3 3 1 5 56 5 124 l-1 122 60 55 c32 30 73 71 90 90 17 19
41 44 52 56 12 13 41 51 65 86 24 35 46 65 49 68 27 27 141 266 177 369 15 44
30 81 33 81 3 0 12 -21 19 -47 8 -27 17 -52 21 -58 4 -5 13 -27 20 -48 37
-115 171 -344 265 -454 36 -41 144 -149 170 -169 l31 -23 -1 -118 c-1 -65 0
-122 2 -128 2 -7 214 -10 611 -9 l607 1 50 -25 c277 -135 477 -343 554 -575
32 -95 64 -122 126 -106 41 11 61 49 75 144 35 225 -2 422 -117 620 -25 44
-49 82 -52 85 -3 3 -19 23 -36 45 -123 166 -404 375 -682 506 -138 65 -407
170 -473 184 -3 1 -25 7 -50 14 -25 7 -53 15 -62 17 -10 2 -28 7 -40 10 -13 3
-30 7 -38 9 -8 2 -15 4 -15 5 0 1 -7 3 -16 5 -70 13 -279 88 -309 109 -8 6
-41 25 -72 41 -32 17 -58 33 -58 38 0 4 -5 7 -11 7 -37 0 -208 165 -274 265
-47 70 -103 178 -110 209 -1 6 -10 37 -19 70 -12 39 -19 101 -21 188 -5 180
-10 205 -49 229 -36 22 -41 23 -82 5z"/>
<path d="M1828 4415 c-2 -2 -19 -6 -40 -9 -129 -20 -269 -115 -345 -234 -98
-152 -105 -336 -21 -501 57 -110 148 -192 270 -244 65 -27 86 -31 183 -33 127
-3 200 17 297 79 64 41 142 118 161 160 6 15 15 27 18 27 4 0 10 10 14 23 4
12 8 24 9 27 15 42 26 81 31 105 7 35 7 163 0 174 -2 4 -7 23 -10 42 -9 53
-62 150 -110 206 -71 81 -200 155 -295 169 -35 6 -159 12 -162 9z"/>
<path d="M4458 4415 c-2 -2 -21 -5 -44 -8 -198 -27 -381 -209 -420 -417 -23
-122 20 -297 96 -394 59 -75 165 -150 257 -181 113 -39 282 -28 393 26 183 89
300 275 294 469 -3 114 -24 179 -87 275 -35 54 -129 144 -160 154 -7 2 -19 9
-27 16 -29 24 -146 55 -222 58 -43 3 -79 3 -80 2z"/>
</g>
</svg>
